<?xml version="1.0" encoding="UTF-8"?>
<svg version="1.1" xmlns="http://www.w3.org/2000/svg" width="1060" height="500">
<path d="M0 0 C4.68345041 0.47617253 8.60787347 1.90596451 12.9296875 3.72265625 C13.56488312 3.98759384 14.20007874 4.25253143 14.85452271 4.52549744 C16.86390834 5.36520443 18.86944843 6.21368234 20.875 7.0625 C22.24454626 7.63665344 23.61433575 8.21022706 24.984375 8.78320312 C28.32575557 10.18210845 31.66374829 11.58889943 35 13 C36.0460254 21.00780791 36.33415793 28.99538874 36.5625 37.0625 C36.59426834 38.12342361 36.59426834 38.12342361 36.62667847 39.20578003 C37.09779353 55.13785243 37.0959448 71.06250331 37 87 C28.585 87.495 28.585 87.495 20 88 C25.54788518 103.74883535 33.39829191 117.14298718 44 130 C44.59425781 130.74765625 45.18851563 131.4953125 45.80078125 132.265625 C50.52403308 137.99214512 56.1541414 142.46386929 62 147 C62.81984375 147.6703125 63.6396875 148.340625 64.484375 149.03125 C89.26531663 168.4250304 120.79034374 172.40211264 151.21875 168.69140625 C172.41281237 165.81028472 192.88132116 158.40672766 209 144 C209.80953125 143.28457031 210.6190625 142.56914062 211.453125 141.83203125 C217.9009646 135.77957804 222.71383082 128.97611123 227.5546875 121.63671875 C227.98031982 121.011604 228.40595215 120.38648926 228.84448242 119.74243164 C229.82943636 118.25719686 230.72749354 116.71493842 231.60546875 115.1640625 C235.55015576 111.59904357 240.29755538 111.42268713 245.4375 110.6875 C246.47455078 110.51927734 247.51160156 110.35105469 248.58007812 110.17773438 C253.10197891 109.46619572 257.41472041 108.90739422 262 109 C255.80723586 126.6819713 244.75921205 141.47741629 232 155 C231.27683594 155.79921875 230.55367187 156.5984375 229.80859375 157.421875 C209.5122258 178.98891235 178.49135414 193.01940807 148.87988281 194.20336914 C144.35715496 194.32756646 139.83659212 194.33447416 135.3125 194.3125 C134.11620972 194.30926727 134.11620972 194.30926727 132.89575195 194.30596924 C121.35154703 194.25586519 110.22289352 193.93926534 99 191 C98.23478027 190.81195801 97.46956055 190.62391602 96.68115234 190.43017578 C78.02393141 185.75750658 60.17810927 177.91571094 45 166 C44.45939941 165.57605957 43.91879883 165.15211914 43.36181641 164.71533203 C14.15369895 141.56369071 -2.45094457 108.71481747 -7 72 C-7.12362924 69.27452944 -7.20962561 66.5735124 -7.23828125 63.84765625 C-7.24789383 63.07841827 -7.25750641 62.3091803 -7.26741028 61.51663208 C-7.29206702 59.03187592 -7.30466933 56.54736424 -7.3125 54.0625 C-7.31578308 53.21595856 -7.31906616 52.36941711 -7.32244873 51.4972229 C-7.34021401 37.32840521 -6.12478305 23.85092817 -3 10 C-2.82049805 9.14486816 -2.64099609 8.28973633 -2.45605469 7.40869141 C-2.28235352 6.58933105 -2.10865234 5.7699707 -1.9296875 4.92578125 C-1.77483887 4.19399658 -1.61999023 3.46221191 -1.46044922 2.70825195 C-1 1 -1 1 0 0 Z " fill="#E98D21" transform="translate(11,193)"/>
<path d="M0 0 C0.77124207 0.00182281 1.54248413 0.00364563 2.33709717 0.00552368 C14.07109997 0.05218973 25.4265706 0.52310527 36.875 3.3125 C37.91068115 3.55395752 37.91068115 3.55395752 38.96728516 3.80029297 C63.13732886 9.60980936 83.55100779 21.83372099 101.875 38.3125 C102.53886719 38.90417969 103.20273438 39.49585938 103.88671875 40.10546875 C127.00918727 61.93437259 140.76035712 96.54385938 142.14575195 128.02294922 C142.2515567 131.93764849 142.25304123 135.84870373 142.21118164 139.7644043 C142.18732841 142.14210458 142.19069108 144.51869223 142.19726562 146.89648438 C142.1794632 155.89857934 141.58964663 164.45071155 139.875 173.3125 C136.70858551 173.79334266 133.54182407 174.27186294 130.375 174.75 C129.488125 174.88470703 128.60125 175.01941406 127.6875 175.15820312 C112.42361973 177.45900861 112.42361973 177.45900861 106.375 177.375 C105.5190625 177.36597656 104.663125 177.35695313 103.78125 177.34765625 C103.1521875 177.33605469 102.523125 177.32445312 101.875 177.3125 C100.70418123 173.61044665 100.75471851 170.11350955 100.76147461 166.24902344 C100.76132858 165.54618225 100.76118256 164.84334106 100.7610321 164.11920166 C100.76172701 161.80339437 100.76949962 159.48766819 100.77734375 157.171875 C100.77920943 155.56333459 100.78063263 153.95479362 100.78163147 152.34625244 C100.78544484 148.11794458 100.79526505 143.88967121 100.80633545 139.66137695 C100.81657494 135.34456855 100.82113453 131.02775456 100.82617188 126.7109375 C100.83688838 118.24477586 100.85395063 109.77864222 100.875 101.3125 C102.14191507 100.63841692 103.41370749 99.97349503 104.6875 99.3125 C105.39519531 98.94125 106.10289062 98.57 106.83203125 98.1875 C108.875 97.3125 108.875 97.3125 111.875 97.3125 C96.03991271 65.71882344 73.98720246 41.38793301 39.875 29.3125 C8.48846832 20.07395517 -28.05394593 22.79992928 -57.125 38.3125 C-73.06460264 47.52581642 -84.30371552 60.0066021 -94.125 75.3125 C-102.81757675 75.27325586 -109.47532677 72.23325728 -117.125 68.3125 C-116.61187717 63.65090951 -114.52162941 60.50324298 -111.8125 56.8125 C-111.370271 56.20374023 -110.92804199 55.59498047 -110.47241211 54.96777344 C-88.93101666 25.93583877 -59.67872465 7.39898909 -24.0546875 1.16796875 C-16.04265817 0.01130254 -8.07836059 -0.03962003 0 0 Z " fill="#1F7FEB" transform="translate(141.125,104.6875)"/>
<path d="M0 0 C1.175625 0.01353516 1.175625 0.01353516 2.375 0.02734375 C4.29180055 0.05071937 6.20844191 0.08658347 8.125 0.125 C7.859375 2.5234375 7.859375 2.5234375 7.125 5.125 C5.453125 6.1640625 5.453125 6.1640625 3.375 6.75 C-2.90476801 8.59558068 -7.51241435 12.28319875 -12.4375 16.4375 C-13.00146484 16.89833984 -13.56542969 17.35917969 -14.14648438 17.83398438 C-18.88663383 21.82014515 -22.10565072 25.85541962 -24.125 31.8125 C-24.54447784 37.04598545 -21.38828198 40.44120039 -18.28125 44.36328125 C-11.37789068 53.13256319 -11.37789068 53.13256319 -1.7578125 57.46875 C3.19819978 57.02998835 6.11631351 55.24995507 10.25 52.625 C10.98629639 52.17737305 11.72259277 51.72974609 12.48120117 51.26855469 C16.02029432 49.10796607 19.51197103 46.88124554 22.98046875 44.609375 C23.860979 44.04186523 23.860979 44.04186523 24.75927734 43.46289062 C26.34622936 42.43416525 27.91779608 41.381818 29.48828125 40.328125 C32.125 39.125 32.125 39.125 34.12109375 39.56640625 C36.94029503 41.75911836 39.40614226 44.24336817 41.875 46.8125 C45.21811573 50.22839104 48.5402993 53.59153253 52.1875 56.6875 C55.50173852 59.50563629 58.57191977 62.52980473 61.625 65.625 C65.46274952 69.51078811 69.36776008 73.19590236 73.56640625 76.6875 C75.125 78.125 75.125 78.125 77.125 81.125 C75.97959775 82.43787621 74.83366567 83.75029021 73.6875 85.0625 C73.04941406 85.79339844 72.41132813 86.52429688 71.75390625 87.27734375 C70.89958541 88.24639353 70.03848825 89.21151175 69.125 90.125 C67.12541636 90.16580783 65.12454746 90.16754356 63.125 90.125 C63.2075 91.011875 63.29 91.89875 63.375 92.8125 C63.07030814 96.84966718 61.90459995 98.26364711 59.125 101.125 C56.60024538 102.38737731 54.81299534 102.22356404 52 102.1875 C50.63488281 102.17396484 50.63488281 102.17396484 49.2421875 102.16015625 C48.19417969 102.14275391 48.19417969 102.14275391 47.125 102.125 C47.228125 103.176875 47.33125 104.22875 47.4375 105.3125 C47.125 109.125 47.125 109.125 44.75 112 C40.66136125 115.30985042 38.36862735 115.31227241 33.125 115.125 C32.465 114.795 31.805 114.465 31.125 114.125 C31.29 114.99125 31.455 115.8575 31.625 116.75 C31.049072 120.63751401 30.52223941 121.08225457 27.5625 123.4375 C23.67774359 126.06643817 20.81136539 127.125 16.125 127.125 C15.465 126.465 14.805 125.805 14.125 125.125 C14.5890625 123.31515625 14.5890625 123.31515625 15.0625 121.46875 C16.46602627 115.72296952 17.06408284 110.82144447 15.125 105.125 C8.16034479 94.15724462 -3.39858108 85.53245009 -13.16992188 77.15820312 C-19.50964123 71.70693293 -25.23985783 65.69467852 -30.984375 59.625 C-31.78617188 58.80257812 -32.58796875 57.98015625 -33.4140625 57.1328125 C-34.12771973 56.38660645 -34.84137695 55.64040039 -35.57666016 54.87158203 C-38.47209204 52.67125064 -40.23608425 52.1035739 -43.875 52.125 C-46.49557922 53.81358798 -46.49557922 53.81358798 -48.765625 56.40234375 C-49.63960937 57.30791016 -50.51359375 58.21347656 -51.4140625 59.14648438 C-52.30867188 60.10876953 -53.20328125 61.07105469 -54.125 62.0625 C-55.91443546 63.95390929 -57.71430504 65.83468264 -59.515625 67.71484375 C-60.30485352 68.55909912 -61.09408203 69.40335449 -61.90722656 70.27319336 C-63.875 72.125 -63.875 72.125 -65.875 72.125 C-67.66516138 51.51909989 -68.07442387 30.79860776 -67.875 10.125 C-63.99426595 10.65393793 -60.93275247 11.44921936 -57.4375 13.1875 C-50.70107419 15.82219098 -43.95970412 17.16937947 -36.875 15.125 C-30.84899298 12.34003379 -25.3065023 8.7689375 -19.74609375 5.1640625 C-13.01360902 0.85979106 -7.85371332 -0.17304792 0 0 Z " fill="#E78C21" transform="translate(124.875,198.875)"/>
<path d="M0 0 C1.05960938 0.76957031 1.05960938 0.76957031 2.140625 1.5546875 C12.22339952 9.59781679 18.74779894 22.35491127 20.6796875 35 C22.53646988 52.39035203 19.1778299 68.76608207 8.25 82.75 C-1.64549686 93.46584893 -15.87871843 99.24964847 -30.2421875 100.21875 C-46.22489357 100.64590473 -60.3858269 96.85733345 -72.75 86.5 C-83.87754033 75.79054644 -88.89265445 62.63202261 -89.39794922 47.33374023 C-89.62333278 31.54158722 -85.91588865 17.06954083 -74.875 5.25 C-55.06944688 -13.35521656 -22.1541818 -16.26211218 0 0 Z M-57.8515625 18.85546875 C-64.96652827 27.63526641 -66.85308839 38.95638299 -66 50 C-64.24723185 60.70982743 -60.63321383 68.61575714 -52.1484375 75.5234375 C-44.57658075 80.72736814 -35.93261604 80.89427783 -27 80 C-19.82429463 78.34179023 -13.69752216 74.69966022 -9 69 C-2.47107962 57.53378659 -1.44717633 45.40087843 -3.578125 32.5 C-5.98509475 24.09748741 -10.88481547 17.02260904 -18.4921875 12.52734375 C-31.96149339 6.67386035 -47.19507969 8.17650391 -57.8515625 18.85546875 Z " fill="#1F7FEC" transform="translate(433,140)"/>
<path d="M0 0 C16 0 16 0 21 4 C22.59717116 5.91333474 24.13517682 7.87694283 25.625 9.875 C26.50314332 11.04093958 27.38207723 12.20628406 28.26171875 13.37109375 C28.93726807 14.26997314 28.93726807 14.26997314 29.62646484 15.18701172 C31.85889821 18.13369678 34.14763068 21.03536616 36.4375 23.9375 C37.36329865 25.11326755 38.28907981 26.28904887 39.21484375 27.46484375 C39.67487793 28.04862793 40.13491211 28.63241211 40.60888672 29.23388672 C42.90874235 32.15371045 45.20417785 35.07700451 47.5 38 C50.29609309 41.55920912 53.09264576 45.11805462 55.890625 48.67578125 C56.36951172 49.28486328 56.84839844 49.89394531 57.34179688 50.52148438 C58.23874189 51.6622591 59.1358587 52.8028988 60.03320312 53.94335938 C63.70629045 58.61561728 67.35105033 63.30849329 71 68 C71.33 45.56 71.66 23.12 72 0 C78.6 0 85.2 0 92 0 C92 35.64 92 71.28 92 108 C76.13636364 108 76.13636364 108 71.11328125 103.1953125 C66.88574799 98.3350248 62.88400884 93.34187287 58.98681641 88.21240234 C55.7873866 84.0023724 52.50683919 79.8659589 49.1875 75.75 C44.2854505 69.66310997 39.50924634 63.48888254 34.8034668 57.24902344 C30.34333445 51.36208352 25.68999951 45.73222163 21 40 C20.67 62.44 20.34 84.88 20 108 C13.4 108 6.8 108 0 108 C0 72.36 0 36.72 0 0 Z " fill="#1F7FEC" transform="translate(469,131)"/>
<path d="M0 0 C7.59 0 15.18 0 23 0 C23 14.85 23 29.7 23 45 C38.18 45 53.36 45 69 45 C69 30.15 69 15.3 69 0 C76.59 0 84.18 0 92 0 C92 35.64 92 71.28 92 108 C84.41 108 76.82 108 69 108 C69 92.82 69 77.64 69 62 C53.82 62 38.64 62 23 62 C23 77.18 23 92.36 23 108 C15.41 108 7.82 108 0 108 C0 72.36 0 36.72 0 0 Z " fill="#1F7FEC" transform="translate(964,131)"/>
<path d="M0 0 C22.77 0 45.54 0 69 0 C69 5.94 69 11.88 69 18 C54.15 18 39.3 18 24 18 C24 26.91 24 35.82 24 45 C35.55 45 47.1 45 59 45 C59 50.61 59 56.22 59 62 C47.45 62 35.9 62 24 62 C24 70.91 24 79.82 24 89 C38.85 89 53.7 89 69 89 C69 95.27 69 101.54 69 108 C46.23 108 23.46 108 0 108 C0 72.36 0 36.72 0 0 Z " fill="#1F7FEC" transform="translate(582,131)"/>
<path d="M0 0 C22.44 0 44.88 0 68 0 C68 5.94 68 11.88 68 18 C53.15 18 38.3 18 23 18 C23 26.91 23 35.82 23 45 C34.55 45 46.1 45 58 45 C58 50.61 58 56.22 58 62 C46.45 62 34.9 62 23 62 C23 70.91 23 79.82 23 89 C37.85 89 52.7 89 68 89 C68 95.27 68 101.54 68 108 C45.56 108 23.12 108 0 108 C0 72.36 0 36.72 0 0 Z " fill="#1F7FEC" transform="translate(786,131)"/>
<path d="M0 0 C55.36234818 0 55.36234818 0 65.10546875 8.9296875 C71.53232054 15.95284513 72.57154323 21.90926352 72.3046875 31.33203125 C71.71100758 38.47902409 69.17795755 42.14604199 63.9375 46.875 C61.68133846 48.7370911 59.43933084 50.37377944 57 52 C57.58007812 52.23074219 58.16015625 52.46148437 58.7578125 52.69921875 C65.78563304 55.63327584 71.13442572 58.47242347 74.375 65.6875 C77.37623774 74.16379907 76.84041391 82.85209482 73 91 C68.27005516 98.28040529 62.26525424 102.48712051 54 105 C36.27819924 108.22214559 18.01234145 107 0 107 C0 71.69 0 36.38 0 0 Z M16 13 C16 24.22 16 35.44 16 47 C19.91875 47.0825 23.8375 47.165 27.875 47.25 C29.08913574 47.28641602 30.30327148 47.32283203 31.55419922 47.36035156 C38.73973141 47.43285002 44.67511957 46.57303004 51 43 C54.95621994 39.04378006 56.14835038 35.70199193 56.25 30.1875 C56.17491762 24.45621173 54.85129173 20.96019124 50.875 16.75 C43.61669067 12.33189867 35.18167679 12.74083251 26.9375 12.875 C21.5234375 12.936875 21.5234375 12.936875 16 13 Z M16 59 C16 70.55 16 82.1 16 94 C19.75375 94.04125 23.5075 94.0825 27.375 94.125 C28.53692871 94.14320801 29.69885742 94.16141602 30.89599609 94.18017578 C40.77708498 94.23215504 49.11557188 94.0041597 56.4375 86.859375 C59.46859938 83.25236673 59.90337786 80.08216795 60.3125 75.5 C59.82178576 70.00400056 58.11445091 67.08968534 54.1875 63.25 C48.93133389 59.5397651 44.43668588 58.74834791 38.0703125 58.8046875 C36.32645264 58.81218018 36.32645264 58.81218018 34.54736328 58.81982422 C32.35829346 58.84713623 32.35829346 58.84713623 30.125 58.875 C23.133125 58.936875 23.133125 58.936875 16 59 Z " fill="#E98D21" transform="translate(352,264)"/>
<path d="M0 0 C2.48380473 1.89072389 4.71485723 3.86388828 7 6 C5.9517502 7.77930585 4.88574919 9.54816071 3.8125 11.3125 C3.22082031 12.29863281 2.62914062 13.28476563 2.01953125 14.30078125 C-0.1157165 17.1546617 -1.77167738 18.53069932 -5 20 C-7.87605231 19.42478954 -10.17799562 18.45625861 -12.73828125 17.03515625 C-20.83812297 12.59114371 -29.63066662 10.89438549 -38.68359375 13.17578125 C-46.01109548 15.78303735 -51.50585611 20.23921858 -55.15625 27.20703125 C-60.63399424 39.00374474 -60.54450264 51.936996 -56.25390625 64.12109375 C-52.73525898 72.1997325 -48.01846053 76.44133085 -40 80 C-33.29948938 82.23350354 -23.09733257 82.14212523 -16.4375 79.8125 C-13.19580644 78.1032434 -10.50174737 76.27694314 -7.73828125 73.890625 C-6 73 -6 73 -3.59375 73.04296875 C-0.118906 74.32510245 1.43011386 76.25341783 3.8125 79.0625 C4.60269531 79.98160156 5.39289063 80.90070313 6.20703125 81.84765625 C7.09455078 82.91306641 7.09455078 82.91306641 8 84 C2.58937974 93.81305041 -6.65579672 97.76828159 -17 101 C-31.3577683 104.39365432 -47.89901615 102.2326648 -60.5390625 94.65234375 C-72.70104621 86.4864404 -79.3140336 75.15259962 -82.71875 61.015625 C-85.7861904 44.79047971 -83.95931356 27.43840065 -74.625 13.5 C-73.448408 11.97497518 -72.24153201 10.47263971 -71 9 C-70.46632813 8.35546875 -69.93265625 7.7109375 -69.3828125 7.046875 C-52.37341685 -11.67159868 -20.61428448 -12.77305063 0 0 Z " fill="#1F7FEC" transform="translate(945,138)"/>
<path d="M0 0 C4.52334283 2.26257608 7.26370738 6.20447659 10.44140625 10.03369141 C16.16972149 16.52864626 16.16972149 16.52864626 24.1171875 19.03369141 C28.73870586 18.76300524 33.05047729 17.63259874 37.44140625 16.22119141 C38.67246094 15.86154297 39.90351563 15.50189453 41.171875 15.13134766 C43.21719656 14.48378468 45.24880542 13.78893117 47.25390625 13.02587891 C49.44140625 12.22119141 49.44140625 12.22119141 51.44140625 12.22119141 C51.44140625 30.04119141 51.44140625 47.86119141 51.44140625 66.22119141 C29.44140625 68.22119141 29.44140625 68.22119141 23.44140625 64.22119141 C22.00936448 62.91727044 20.61867521 61.56632717 19.27539062 60.17114258 C18.51440063 59.38740768 17.75341064 58.60367279 16.96936035 57.79618835 C16.166073 56.96061905 15.36278564 56.12504974 14.53515625 55.26416016 C12.8054273 53.49455651 11.07493565 51.72569812 9.34375 49.95751953 C6.63004598 47.17554158 3.9221255 44.38865975 1.22705078 41.58862305 C-1.38373247 38.88132855 -4.01588972 36.19642927 -6.65234375 33.51416016 C-7.4556311 32.6684697 -8.25891846 31.82277924 -9.08654785 30.95146179 C-9.84753784 30.1834877 -10.60852783 29.41551361 -11.39257812 28.62426758 C-12.05398804 27.94128098 -12.71539795 27.25829437 -13.39685059 26.55461121 C-15.58054701 24.91704622 -15.58054701 24.91704622 -18.68205261 25.44424438 C-21.41940336 26.18359641 -23.3767777 27.01559884 -25.765625 28.51416016 C-26.51295898 28.97725586 -27.26029297 29.44035156 -28.03027344 29.91748047 C-28.80274414 30.40958008 -29.57521484 30.90167969 -30.37109375 31.40869141 C-31.17063477 31.9046582 -31.97017578 32.400625 -32.79394531 32.91162109 C-36.89992038 35.47303924 -40.88596427 38.13482855 -44.80859375 40.97119141 C-47.5265641 42.79906621 -48.36198899 43.20962642 -51.74609375 43.40869141 C-57.07605632 41.15826276 -61.27468914 37.5950846 -63.55859375 32.22119141 C-63.55859375 29.65869141 -63.55859375 29.65869141 -62.55859375 27.22119141 C-59.17293373 24.24697529 -55.57160177 21.92275533 -51.69140625 19.64697266 C-50.00204956 18.65117187 -50.00204956 18.65117187 -48.27856445 17.63525391 C-47.08047279 16.93433652 -45.882145 16.23382262 -44.68359375 15.53369141 C-42.24142038 14.10400758 -39.80010337 12.67287186 -37.359375 11.24072266 C-36.7642662 10.89200104 -36.16915741 10.54327942 -35.55601501 10.18399048 C-32.24190216 8.23523869 -28.96547292 6.24158389 -25.7265625 4.17041016 C-25.0567334 3.74655029 -24.3869043 3.32269043 -23.69677734 2.88598633 C-22.0138085 1.8122441 -20.34226966 0.7206423 -18.671875 -0.37255859 C-12.49564114 -3.16232546 -6.27575139 -2.03482855 0 0 Z " fill="#1F7FEC" transform="translate(177.55859375,200.77880859375)"/>
<path d="M0 0 C28.05 0 56.1 0 85 0 C85 6.27 85 12.54 85 19 C74.77 19 64.54 19 54 19 C54 48.37 54 77.74 54 108 C46.41 108 38.82 108 31 108 C31 78.63 31 49.26 31 19 C20.77 19 10.54 19 0 19 C0 12.73 0 6.46 0 0 Z " fill="#1F7FEC" transform="translate(688,131)"/>
<path d="M0 0 C4.95 0 9.9 0 15 0 C15 36.3 15 72.6 15 110 C11.37 110 7.74 110 4 110 C1.3144406 107.3144406 0.93950026 104.62378672 0 101 C-0.49628906 101.39832031 -0.99257813 101.79664063 -1.50390625 102.20703125 C-9.41181032 108.37429609 -16.76607215 111.67107724 -27 111 C-34.51383838 109.66175101 -40.05312966 106.88336027 -45 101 C-53.00888065 88.48739766 -53.83641856 73.44463054 -51.3125 59.08984375 C-48.57365557 49.33271045 -43.37325328 41.76784185 -35 36 C-27.76341543 32.12325827 -20.07141975 32.05889959 -12 33 C-8.070712 34.35677147 -3.99076623 36.00923377 -1 39 C-0.67 26.13 -0.34 13.26 0 0 Z M-31.1875 51 C-37.47820904 58.89228064 -37.85876355 69.31832323 -37 79 C-35.85530362 85.94804084 -34.14667347 91.10438377 -29 96 C-24.11371158 99.08719748 -18.57088492 98.48605036 -13 98 C-7.54081783 96.01484285 -3.22880364 92.84320546 0 88 C0.24383685 85.30190826 0.37588833 82.70931769 0.40625 80.0078125 C0.42335022 78.83338089 0.42335022 78.83338089 0.4407959 77.63522339 C0.45967643 75.97936391 0.4727562 74.32342962 0.48046875 72.66748047 C0.49988276 70.14026172 0.56192486 67.61629868 0.625 65.08984375 C0.63806139 63.47918594 0.64856183 61.86850492 0.65625 60.2578125 C0.6809436 59.50557404 0.70563721 58.75333557 0.7310791 57.978302 C0.70646313 55.06366362 0.59856455 52.72111329 -1.30953979 50.42234802 C-10.43010285 42.71211431 -22.56281537 42.24940756 -31.1875 51 Z " fill="#E98D21" transform="translate(806,261)"/>
<path d="M0 0 C9.32686599 6.56920505 13.76053238 14.11452209 16.4140625 25.16796875 C18.42164148 37.61495841 16.39933497 49.9416421 9.48046875 60.5234375 C3.85889351 67.94815952 -3.30505019 71.27320744 -12.23828125 73.4609375 C-23.38267316 74.40939639 -33.94544295 73.2528637 -43.2109375 66.43359375 C-50.98736852 59.61568902 -55.4412324 49.99462137 -56.17578125 39.7109375 C-56.81442248 27.76216619 -55.14503092 16.31081147 -47.57421875 6.671875 C-35.95428849 -5.79699994 -14.68739401 -8.70168765 0 0 Z M-34.70703125 13.2890625 C-41.45111989 21.99364202 -41.12950343 33.21511519 -40.17578125 43.7109375 C-38.85700956 50.14685923 -36.22795544 54.62961907 -30.96484375 58.59375 C-26.16864504 61.58875618 -21.75426804 62.19184153 -16.17578125 61.7109375 C-10.59385387 60.34741325 -6.86407701 58.24227229 -3.17578125 53.7109375 C2.12699866 44.43107265 2.0612848 33.12359309 0.328125 22.73828125 C-1.55869107 16.5235142 -4.66345807 12.21833141 -10.30078125 8.8359375 C-18.68885346 5.78406809 -28.35582035 6.74342678 -34.70703125 13.2890625 Z " fill="#E98D21" transform="translate(644.17578125,298.2890625)"/>
<path d="M0 0 C6.104298 4.50491861 9.75524532 12.11056243 11.62890625 19.3359375 C12.01326329 22.08257883 12.14514467 24.7344593 12.1640625 27.5078125 C12.17824219 28.46042969 12.19242187 29.41304688 12.20703125 30.39453125 C11.9765625 32.8203125 11.9765625 32.8203125 9.9765625 34.8203125 C7.83786011 35.06082153 7.83786011 35.06082153 5.15966797 35.04736328 C4.15878143 35.04721222 3.1578949 35.04706116 2.12667847 35.04690552 C0.50162888 35.03142166 0.50162888 35.03142166 -1.15625 35.015625 C-2.26322235 35.0127951 -3.3701947 35.00996521 -4.51071167 35.00704956 C-8.05672887 34.99582769 -11.60249625 34.97071941 -15.1484375 34.9453125 C-17.54817344 34.9352853 -19.94791333 34.926159 -22.34765625 34.91796875 C-28.23966901 34.89588182 -34.13153541 34.86238457 -40.0234375 34.8203125 C-39.74762675 36.56270297 -39.46018363 38.30325424 -39.16796875 40.04296875 C-39.00917236 41.01242432 -38.85037598 41.98187988 -38.68676758 42.98071289 C-37.41496906 48.42505907 -34.54806541 52.29568459 -30.6484375 56.1953125 C-25.40730982 59.43982011 -20.11319304 60.42928805 -14.0234375 59.8203125 C-9.50980826 58.45916115 -5.06875346 56.90114002 -0.89453125 54.6953125 C1.74866455 53.45924599 4.10237319 53.68966753 6.9765625 53.8203125 C8.2965625 56.1303125 9.6165625 58.4403125 10.9765625 60.8203125 C3.17363328 69.92372993 -7.46104419 72.22012255 -18.9609375 73.1328125 C-30.14197592 72.74330911 -39.66339307 68.68292805 -47.3359375 60.5703125 C-55.96328439 49.81009375 -55.98430608 35.902082 -55.0234375 22.8203125 C-53.37871918 14.08150791 -48.73717007 6.35182275 -41.59375 1 C-28.53137026 -7.21857935 -13.45469075 -7.84424055 0 0 Z M-36.578125 14.39453125 C-38.6127644 17.54443208 -38.6127644 17.54443208 -40.0234375 24.8203125 C-27.4834375 24.8203125 -14.9434375 24.8203125 -2.0234375 24.8203125 C-2.96771409 15.05600179 -2.96771409 15.05600179 -9.0234375 8.8203125 C-19.62363606 2.84565513 -28.94504356 5.82062814 -36.578125 14.39453125 Z " fill="#E98D21" transform="translate(494.0234375,299.1796875)"/>
<path d="M0 0 C6.24463941 4.20312268 9.49837559 9.70375991 11 17 C11.08610854 18.89392903 11.11771982 20.79064257 11.11352539 22.68652344 C11.11344986 23.82740417 11.11337433 24.96828491 11.11329651 26.14373779 C11.10813522 27.36989807 11.10297394 28.59605835 11.09765625 29.859375 C11.0962413 31.11888977 11.09482635 32.37840454 11.09336853 33.67608643 C11.08872073 37.01665119 11.07974281 40.35714721 11.06866455 43.69769287 C11.05841598 47.1096538 11.05386354 50.52162185 11.04882812 53.93359375 C11.03779963 60.62241725 11.02053524 67.31119921 11 74 C6.05 74 1.1 74 -4 74 C-4.01458252 72.36530762 -4.02916504 70.73061523 -4.04418945 69.04638672 C-4.10221478 62.97438822 -4.17944847 56.9027589 -4.26245117 50.83105469 C-4.29568038 48.20448809 -4.3237185 45.57785043 -4.34643555 42.95117188 C-4.38001728 39.17286939 -4.43233753 35.39521695 -4.48828125 31.6171875 C-4.49467117 30.44509735 -4.5010611 29.2730072 -4.50764465 28.06539917 C-4.6123027 20.10021369 -4.6123027 20.10021369 -8 13 C-12.44707992 9.8973861 -16.69884164 9.27258541 -22 10 C-27.30647286 11.28671992 -32.75313007 13.4186335 -36 18 C-36.91769623 22.23368436 -36.83743718 26.41991155 -36.8046875 30.73828125 C-36.82524704 32.59213692 -36.82524704 32.59213692 -36.84622192 34.48344421 C-36.87723479 37.75695671 -36.88264305 41.02918587 -36.87554932 44.30279541 C-36.87463495 47.64804913 -36.90801852 50.99276655 -36.9375 54.33789062 C-36.98940775 60.89213831 -37.00442633 67.44555801 -37 74 C-41.95 74 -46.9 74 -52 74 C-52 48.92 -52 23.84 -52 -2 C-48.37 -2 -44.74 -2 -41 -2 C-38.4345406 0.5654594 -38.45953913 2.47686668 -38 6 C-37.27554688 5.51789063 -36.55109375 5.03578125 -35.8046875 4.5390625 C-34.83789062 3.90742188 -33.87109375 3.27578125 -32.875 2.625 C-31.92367187 1.99851562 -30.97234375 1.37203125 -29.9921875 0.7265625 C-20.72355993 -4.62165341 -9.51639518 -4.84167474 0 0 Z " fill="#E98D21" transform="translate(728,297)"/>
<path d="M0 0 C2.41936317 -0.16249454 4.82781859 -0.28097817 7.25 -0.375 C7.93191406 -0.42527344 8.61382813 -0.47554688 9.31640625 -0.52734375 C11.328125 -0.5859375 11.328125 -0.5859375 15 0 C18.85278349 4.75692 20.99960643 10.26834902 23.328125 15.88671875 C23.72199402 16.82554398 24.11586304 17.7643692 24.52166748 18.73164368 C25.34825476 20.70628367 26.17170651 22.68223881 26.9921875 24.65942383 C28.25162734 27.69141768 29.52352284 30.71796721 30.796875 33.74414062 C31.59970466 35.66635513 32.4018134 37.58887092 33.203125 39.51171875 C33.58430481 40.41798508 33.96548462 41.3242514 34.35821533 42.25798035 C34.7056781 43.09927994 35.05314087 43.94057953 35.41113281 44.80737305 C35.71883606 45.54650436 36.02653931 46.28563568 36.34356689 47.04716492 C37 49 37 49 37 52 C37.66 52 38.32 52 39 52 C39.09821045 51.34547852 39.1964209 50.69095703 39.29760742 50.01660156 C40.21596066 46.07250264 41.70150243 42.47382109 43.23828125 38.734375 C43.56032028 37.94154114 43.88235931 37.14870728 44.2141571 36.33184814 C44.89550763 34.65675126 45.57897062 32.98251227 46.2644043 31.30908203 C47.30255364 28.77428552 48.33447969 26.23702997 49.36523438 23.69921875 C50.03088404 22.06495506 50.69688854 20.43083584 51.36328125 18.796875 C51.66760574 18.04968201 51.97193024 17.30248901 52.28547668 16.53265381 C53.17999433 14.35062508 54.08673399 12.17424491 55 10 C55.3451767 9.17036743 55.69035339 8.34073486 56.04598999 7.48596191 C56.56886093 6.26169495 56.56886093 6.26169495 57.10229492 5.01269531 C57.41752609 4.26836243 57.73275726 3.52402954 58.05754089 2.75714111 C59 1 59 1 61 0 C65.66685949 -0.13989387 70.33165791 -0.04243947 75 0 C70.26450118 13.05696066 64.55215912 25.71411977 59 38.4375 C57.96368154 40.8175107 56.92763133 43.19763822 55.8918457 45.57788086 C53.85684356 50.25387584 51.82064964 54.92934903 49.78369141 59.60449219 C47.40391019 65.06887526 45.03233098 70.53674205 42.66796875 76.0078125 C42.35908722 76.72234085 42.05020569 77.4368692 41.73196411 78.17304993 C40.36375205 81.33873773 38.99668485 84.50491224 37.63085938 87.67163086 C37.16873047 88.74034424 36.70660156 89.80905762 36.23046875 90.91015625 C35.84270264 91.80871338 35.45493652 92.70727051 35.05541992 93.63305664 C32.27848941 99.86075529 32.27848941 99.86075529 30 101 C27.7927077 101.07092842 25.58332548 101.08415025 23.375 101.0625 C22.18648437 101.05347656 20.99796875 101.04445313 19.7734375 101.03515625 C18.40058594 101.01775391 18.40058594 101.01775391 17 101 C17.61616089 97.11042927 18.80682111 94.00148634 20.5390625 90.47265625 C21.03664063 89.43302734 21.53421875 88.39339844 22.046875 87.32226562 C23.09891657 85.14917482 24.15882575 82.97987534 25.2265625 80.81445312 C25.7215625 79.77353516 26.2165625 78.73261719 26.7265625 77.66015625 C27.18627441 76.71793213 27.64598633 75.77570801 28.11962891 74.80493164 C29.86917444 69.23074178 27.65363833 64.77579315 25.296875 59.6875 C25.02250107 59.08876068 24.74812714 58.49002136 24.46543884 57.87313843 C23.87402487 56.583869 23.27952132 55.29601314 22.68222046 54.00946045 C21.08584244 50.56836617 19.51525432 47.11550411 17.94140625 43.6640625 C17.61682938 42.95375885 17.2922525 42.2434552 16.95783997 41.5116272 C13.75232105 34.48550022 10.62648994 27.42569534 7.54528809 20.34423828 C6.97658991 19.03866848 6.4058917 17.73396794 5.83312988 16.43017578 C5.0335223 14.60927097 4.24121324 12.78516648 3.44921875 10.9609375 C2.99893311 9.92759277 2.54864746 8.89424805 2.0847168 7.82958984 C1.07954054 5.20748927 0.45095589 2.76539737 0 0 Z " fill="#E98D21" transform="translate(510,295)"/>
<path d="M0 0 C3.19840488 1.02547769 4.66123364 2.39590018 7.02203369 4.77561951 C7.85929993 5.60996017 8.69656616 6.44430084 9.5592041 7.30392456 C10.44895935 8.2111879 11.3387146 9.11845123 12.25543213 10.0532074 C13.63961334 11.44232079 13.63961334 11.44232079 15.05175781 12.85949707 C17.00109615 14.81646333 18.94380091 16.77969518 20.88140869 18.74827576 C23.36680472 21.27332802 25.8629258 23.7874165 28.36337662 26.29755306 C30.74761559 28.69175644 33.12667504 31.09105635 35.50543213 33.4907074 C36.4032843 34.3959465 37.30113647 35.30118561 38.22619629 36.2338562 C39.05085388 37.07134903 39.87551147 37.90884186 40.72515869 38.77171326 C41.45398254 39.51038132 42.1828064 40.24904938 42.93371582 41.01010132 C45.11281567 43.37997032 45.6033682 44.79070144 46.36480713 47.96336365 C45.45106056 52.68438759 44.2828179 53.40270693 40.55230713 56.27586365 C37.24184805 58.43909203 34.75849345 59.79939787 30.92730713 60.83836365 C26.73211901 59.57189176 24.77110423 57.50908983 21.89996338 54.2719574 C20.05662317 52.30887885 18.24029367 50.61942325 16.20074463 48.87742615 C10.55864341 43.99860257 5.25719717 38.77646866 -0.04217529 33.53147888 C-1.23644865 32.35390865 -2.43608044 31.18174997 -3.64080811 30.01487732 C-5.39990872 28.31050322 -7.14201577 26.59028493 -8.88128662 24.8657074 C-9.41974716 24.34991623 -9.9582077 23.83412506 -10.51298523 23.30270386 C-13.82818504 19.9684025 -15.24048789 17.56967764 -15.38519287 12.83836365 C-13.60493258 8.7499038 -10.92978312 6.25932042 -7.51019287 3.46336365 C-6.24562256 2.39988708 -6.24562256 2.39988708 -4.95550537 1.31492615 C-2.38519287 -0.16163635 -2.38519287 -0.16163635 0 0 Z " fill="#1F7EE9" transform="translate(84.38519287109375,264.16163635253906)"/>
</svg>
